<svg xmlns="http://www.w3.org/2000/svg" xmlns:xlink="http://www.w3.org/1999/xlink" width="35" height="40" viewBox="0 0 35 40"><defs><path id="b" d="M0 6.99A3.998 3.998 0 0 1 4 3h779c2.209 0 4 1.783 4 4.006v337.995a4.002 4.002 0 0 1-4 3.999H4c-2.209 0-4-1.792-4-4.009V6.99z"/><filter id="a" width="103.3%" height="107.5%" x="-1.7%" y="-3.2%" filterUnits="objectBoundingBox"><feOffset dy="2" in="SourceAlpha" result="shadowOffsetOuter1"/><feGaussianBlur in="shadowOffsetOuter1" result="shadowBlurOuter1" stdDeviation="4"/><feColorMatrix in="shadowBlurOuter1" values="0 0 0 0 0 0 0 0 0 0 0 0 0 0 0 0 0 0 0.15 0"/></filter></defs><g fill="none" fill-rule="evenodd"><rect width="950" height="315" x="240" y="63" fill="#F7F7F7" rx="4" transform="matrix(1 0 0 -1 -239 127)"/><path fill="#000" d="M-342-486h1440v750H-342z" opacity=".5"/><g transform="translate(-40 -286)"><use fill="#000" filter="url(#a)" xlink:href="#b"/><use fill="#FFF" xlink:href="#b"/></g><path fill="#F7F7F7" d="M-36-283h296V63H-36a4 4 0 0 1-4-4v-338a4 4 0 0 1 4-4z"/><path fill="#CCC" d="M30.48 21.642c0 9.354-10.941 13.417-12.98 14.092-2.039-.675-12.98-4.738-12.98-14.092V6.262c2.577.494 5.312.12 7.657-1.053 3.289-1.64 7.357-1.64 10.646 0a12.09 12.09 0 0 0 5.38 1.271c.764 0 1.527-.074 2.277-.218v15.38zm.07-17.813c1.129-.285 2.29.615 2.29 1.78v16.033c0 12.054-14.404 16.291-15.018 16.466l-.322.092-.322-.092c-.614-.175-15.018-4.412-15.018-16.466V5.428c0-1.075 1.062-1.907 2.107-1.645l.182.046a9.795 9.795 0 0 0 6.675-.732c3.94-1.97 8.813-1.97 12.752 0a9.785 9.785 0 0 0 6.674.732zM17.5 12.22a5.91 5.91 0 0 0-5.9 5.905 5.91 5.91 0 0 0 5.9 5.905 5.91 5.91 0 0 0 5.9-5.905 5.91 5.91 0 0 0-5.9-5.905zm0 9.447a3.546 3.546 0 0 1-3.54-3.542 3.546 3.546 0 0 1 3.54-3.543c1.952 0 3.54 1.59 3.54 3.543a3.546 3.546 0 0 1-3.54 3.542z"/></g></svg>