<svg width="160" height="38" viewBox="0 0 160 38" xmlns="http://www.w3.org/2000/svg"><title>5C636267-22C3-43DF-8E26-1C8FBEE92A3F</title><path d="M149.13 32.917c-.884.624-1.456.833-2.184.833-1.196 0-3.12-1.092-3.12-4.005 0-1.768.832-2.704 2.444-3.536 1.04-.572 1.924-1.144 2.86-1.612v8.32zm9.88.104c-.572.208-1.144.416-1.768.416-.832 0-1.664-.676-1.664-3.068v-8.58c0-2.912-.468-5.148-2.704-6.864-1.404-1.04-2.964-1.508-5.096-1.508-2.964.52-6.657 2.34-8.633 3.692-1.196.884-1.82 1.56-1.82 2.496 0 1.352 1.872 2.6 3.224 2.6 1.093 0 1.821-.416 2.185-1.768.416-1.612.884-2.86 1.508-3.588.468-.624 1.04-.936 1.716-.936 1.924 0 3.172 1.82 3.172 5.096v1.56c-1.196 1.04-5.2 2.288-8.269 3.432-2.704.988-3.952 2.288-3.952 4.993 0 3.224 2.6 6.656 7.021 6.656.988 0 3.432-1.716 5.408-3.016.26.624.624 1.3 1.352 1.924.676.624 1.768 1.092 3.172 1.092l5.668-2.964-.52-1.665zm-34.424-.156c-1.144.729-1.924.833-2.86.833-2.392 0-6.084-2.445-6.136-8.841 0-7.904 4.004-9.256 5.252-9.256 1.508 0 2.912.884 3.744 2.704v14.56zm6.656-2.392V.468c-2.652.78-6.812 1.456-10.14 1.872v1.612c3.172.364 3.484.625 3.484 3.433v6.292c-1.144-.156-1.716-.26-2.132-.26-8.112 0-14.248 5.772-14.248 12.844 0 7.749 6.188 11.389 10.608 11.389.624 0 1.352-.156 2.652-.936l3.12-2.028v3.016c4.108-1.196 8.997-1.82 10.245-2.028V34.01l-1.144-.104c-2.185-.26-2.445-.469-2.445-3.433zm-38.115 5.149c-3.276 0-5.304-5.045-5.304-11.441 0-5.98 2.08-8.736 4.264-8.736 3.276 0 5.096 4.004 5.096 11.232 0 7.645-2.08 8.945-4.056 8.945zm-.364-22.205c-5.772 0-12.376 4.264-12.376 12.636 0 5.668 4.004 11.597 12.168 11.597 6.084 0 12.065-4.161 12.065-12.533 0-6.24-4.577-11.7-11.857-11.7zM75.397 31.825V21.789c0-5.304-2.444-8.372-6.968-8.372-1.56 0-2.965.676-4.109 1.456-1.248.884-2.496 1.664-3.744 2.652-.936-2.392-3.068-4.108-5.928-4.108-1.508 0-2.912.624-4.524 1.664-1.144.676-2.132 1.404-3.276 2.236v-4.004c-3.224.884-6.709 1.612-9.153 1.976v1.508c2.393.364 2.652.884 2.652 3.848v10.92c0 3.277-.312 3.433-3.276 3.797v1.664h12.221v-1.664c-1.976-.312-2.34-.572-2.34-3.537V19.137c1.456-1.092 2.756-1.664 4.004-1.664 1.924 0 3.588 1.144 3.588 4.888v9.464c0 3.069-.208 3.173-2.652 3.537v1.664h12.012v-1.664c-2.34-.312-2.704-.572-2.704-3.537V21.321c0-.78-.104-1.508-.156-2.08 1.716-1.404 3.016-1.716 4.056-1.716 1.665 0 3.693.832 3.693 5.096v8.944c0 3.277-.416 3.485-2.704 3.797v1.664h12.272v-1.664c-2.756-.416-2.964-.572-2.964-3.537zm-47.945-7.696c-1.768 3.588-7.644 10.193-9.672 10.193-.728 0-1.404-1.093-1.404-3.433 0-5.148 2.08-11.284 5.616-13.884.884-.676 2.34-1.092 3.692-1.092 1.353 0 2.756.364 3.485.728-.365 1.664-1.145 5.408-1.717 7.488zm2.393 9.569c-.312 0-.468-.417-.104-2.237 1.196-6.604 2.756-13.676 3.588-16.9l-.156-.208c-.572 0-1.248-.156-1.977-.312-1.09-.208-2.13-.364-3.224-.364-3.276 0-7.072 1.82-9.672 4.004-3.796 3.172-6.24 8.84-6.24 14.092 0 4.161 1.664 5.877 3.016 5.877 1.404 0 3.12-.936 4.836-2.34a37.394 37.394 0 0 0 6.708-7.177h.105l-1.04 4.94c-.729 3.797-.053 4.577.935 4.577 1.301 0 4.785-1.924 7.593-5.409l-.624-1.247c-1.508 1.508-3.328 2.704-3.744 2.704zM10.241 0c-.677 0-3.64 1.352-7.697 1.82l-.208 1.248 1.404.052c2.392 0 2.704.364 2.184 2.6C4.156 14.301 2.336 22.829.516 31.357c-1.092 5.097-.26 6.293.728 6.293 1.612 0 5.304-2.34 8.008-5.565l-.78-1.144c-1.456 1.509-3.588 2.861-4.16 2.861-.312 0-.52-.313-.208-1.821C6.288 21.685 8.42 11.597 10.554 1.56 10.76.468 10.708 0 10.24 0z" fill="#000106" fill-rule="evenodd"/></svg>