<svg xmlns="http://www.w3.org/2000/svg" width="16" height="18" viewBox="0 0 16 18">
    <path fill="#FFF" fill-rule="evenodd" d="M9.928 7.897c-.17.17-.287.37-.362.583H6.434a1.54 1.54 0 0 0-.362-.583L4.45 6.274a2.067 2.067 0 0 1-.609-1.47V3.28h8.32v1.523c0 .555-.216 1.078-.609 1.47L9.928 7.898zm1.623 3.83c.393.392.609.915.609 1.47v1.523H3.84v-1.523c0-.555.216-1.078.609-1.47l1.623-1.624c.17-.17.287-.37.362-.583h3.132c.075.213.192.413.362.583l1.623 1.623zm2.6 5.073H1.85a1.563 1.563 0 0 1 1.471-1.04h9.36c.678 0 1.256.435 1.471 1.04zM1.85 1.2H14.15a1.563 1.563 0 0 1-1.471 1.04H3.32A1.563 1.563 0 0 1 1.849 1.2zm10.437 5.809c.59-.59.914-1.372.914-2.206V3.227A2.604 2.604 0 0 0 15.28.68V.16H.72v.52c0 1.256.895 2.306 2.08 2.547v1.576c0 .834.324 1.617.914 2.206l1.623 1.623a.52.52 0 0 1 0 .736L3.714 10.99a3.099 3.099 0 0 0-.914 2.206v1.576A2.605 2.605 0 0 0 .72 17.32v.52h14.56v-.52a2.605 2.605 0 0 0-2.08-2.547v-1.576c0-.834-.324-1.617-.914-2.206l-1.623-1.623a.52.52 0 0 1 0-.736l1.623-1.623z"/>
</svg>
