<svg xmlns="http://www.w3.org/2000/svg" xmlns:xlink="http://www.w3.org/1999/xlink" width="26" height="51" viewBox="0 0 26 51"><svg width="26" height="25" viewBox="-5 -5 26 25" id="icon-conversion" y="0"><path fill="#ACACAC" fill-rule="evenodd" d="M15.28 4.807l-.454.935-.697-.338c.339.81.52 1.681.52 2.56 0 3.747-3.135 6.796-6.988 6.796a7.147 7.147 0 0 1-3.318-.815l.483-.92a6.12 6.12 0 0 0 2.835.695c3.28 0 5.948-2.582 5.948-5.756 0-.785-.176-1.56-.494-2.276l-.372.721-.924-.476 1.156-2.245 2.305 1.119zM2.365 9.792l.372-.721.924.476-1.156 2.245L.2 10.673l.454-.935.697.338a6.645 6.645 0 0 1-.52-2.56C.831 3.77 3.966.72 7.82.72c1.157 0 2.304.282 3.318.815l-.483.92A6.12 6.12 0 0 0 7.82 1.76c-3.28 0-5.948 2.582-5.948 5.756 0 .785.176 1.56.494 2.276z"></path></svg><svg width="24" height="26" viewBox="-5 -5 24 26" id="icon-min-price-info" y="25"><path fill="#ACACAC" fill-rule="evenodd" d="M12.2 4.36c.86 0 1.56.7 1.56 1.56v7.8c0 .86-.7 1.56-1.56 1.56H1.8c-.86 0-1.56-.7-1.56-1.56v-7.8c0-.86.7-1.56 1.56-1.56h3.12V5.4H1.8a.52.52 0 0 0-.52.52v7.8c0 .287.233.52.52.52h10.4a.52.52 0 0 0 .52-.52v-7.8a.52.52 0 0 0-.52-.52H9.08V4.36h3.12zM6.532 2.048l-.992.974-.62-.779L7 .2l2.08 2.043-.62.78-.992-.975V9.56h-.936V2.048z"></path></svg></svg>