<?xml version="1.0" encoding="UTF-8" standalone="no"?>
<svg width="160px" height="38px" viewBox="0 0 160 38" version="1.1" xmlns="http://www.w3.org/2000/svg" xmlns:xlink="http://www.w3.org/1999/xlink">
    <!-- Generator: sketchtool 3.8.3 (29802) - http://www.bohemiancoding.com/sketch -->
    <title>5C636267-22C3-43DF-8E26-1C8FBEE92A3F</title>
    <desc>Created with sketchtool.</desc>
    <defs></defs>
    <g id="controls" stroke="none" stroke-width="1" fill="none" fill-rule="evenodd">
        <g id="иконки" transform="translate(-57.000000, -230.000000)" fill="#000106">
            <path d="M206.130167,262.917 C205.246167,263.541 204.674167,263.75 203.946167,263.75 C202.750167,263.75 200.826167,262.658 200.826167,259.745 C200.826167,257.977 201.658167,257.041 203.270167,256.209 C204.310167,255.637 205.194167,255.065 206.130167,254.597 L206.130167,262.917 L206.130167,262.917 Z M216.010167,263.021 C215.438167,263.229 214.866167,263.437 214.242167,263.437 C213.410167,263.437 212.578167,262.761 212.578167,260.369 L212.578167,251.789 C212.578167,248.877 212.110167,246.641 209.874167,244.925 C208.470167,243.885 206.910167,243.417 204.778167,243.417 C201.814167,243.937 198.121167,245.757 196.145167,247.109 C194.949167,247.993 194.325167,248.669 194.325167,249.605 C194.325167,250.957 196.197167,252.205 197.549167,252.205 C198.642167,252.205 199.370167,251.789 199.734167,250.437 C200.150167,248.825 200.618167,247.577 201.242167,246.849 C201.710167,246.225 202.282167,245.913 202.958167,245.913 C204.882167,245.913 206.130167,247.733 206.130167,251.009 L206.130167,252.569 C204.934167,253.609 200.930167,254.857 197.861167,256.001 C195.157167,256.989 193.909167,258.289 193.909167,260.994 C193.909167,264.218 196.509167,267.65 200.930167,267.65 C201.918167,267.65 204.362167,265.934 206.338167,264.634 C206.598167,265.258 206.962167,265.934 207.690167,266.558 C208.366167,267.182 209.458167,267.65 210.862167,267.65 L216.530167,264.686 L216.010167,263.021 L216.010167,263.021 Z M181.586167,262.865 C180.442167,263.594 179.662167,263.698 178.726167,263.698 C176.334167,263.698 172.642167,261.253 172.590167,254.857 C172.590167,246.953 176.594167,245.601 177.842167,245.601 C179.350167,245.601 180.754167,246.485 181.586167,248.305 L181.586167,262.865 L181.586167,262.865 Z M188.242167,260.473 L188.242167,230.468 C185.590167,231.248 181.430167,231.924 178.102167,232.34 L178.102167,233.952 C181.274167,234.316 181.586167,234.577 181.586167,237.385 L181.586167,243.677 C180.442167,243.521 179.870167,243.417 179.454167,243.417 C171.342167,243.417 165.206167,249.189 165.206167,256.261 C165.206167,264.01 171.394167,267.65 175.814167,267.65 C176.438167,267.65 177.166167,267.494 178.466167,266.714 L181.586167,264.686 L181.586167,267.702 C185.694167,266.506 190.583167,265.882 191.831167,265.674 L191.831167,264.01 L190.687167,263.906 C188.502167,263.646 188.242167,263.437 188.242167,260.473 L188.242167,260.473 Z M150.127167,265.622 C146.851167,265.622 144.823167,260.577 144.823167,254.181 C144.823167,248.201 146.903167,245.445 149.087167,245.445 C152.363167,245.445 154.183167,249.449 154.183167,256.677 C154.183167,264.322 152.103167,265.622 150.127167,265.622 L150.127167,265.622 Z M149.763167,243.417 C143.991167,243.417 137.387167,247.681 137.387167,256.053 C137.387167,261.721 141.391167,267.65 149.555167,267.65 C155.639167,267.65 161.620167,263.489 161.620167,255.117 C161.620167,248.877 157.043167,243.417 149.763167,243.417 L149.763167,243.417 Z M132.397167,261.825 L132.397167,251.789 C132.397167,246.485 129.953167,243.417 125.429167,243.417 C123.868167,243.417 122.464167,244.093 121.320167,244.873 C120.072167,245.757 118.824167,246.537 117.576167,247.525 C116.640167,245.133 114.508167,243.417 111.648167,243.417 C110.140167,243.417 108.736167,244.041 107.124167,245.081 C105.980167,245.757 104.992167,246.485 103.848167,247.317 L103.848167,243.313 C100.624167,244.197 97.1391669,244.925 94.6951669,245.289 L94.6951669,246.797 C97.0881669,247.161 97.3471669,247.681 97.3471669,250.645 L97.3471669,261.565 C97.3471669,264.842 97.0351669,264.998 94.0711669,265.362 L94.0711669,267.026 L106.292167,267.026 L106.292167,265.362 C104.316167,265.05 103.952167,264.79 103.952167,261.825 L103.952167,249.137 C105.408167,248.045 106.708167,247.473 107.956167,247.473 C109.880167,247.473 111.544167,248.617 111.544167,252.361 L111.544167,261.825 C111.544167,264.894 111.336167,264.998 108.892167,265.362 L108.892167,267.026 L120.904167,267.026 L120.904167,265.362 C118.564167,265.05 118.200167,264.79 118.200167,261.825 L118.200167,251.321 C118.200167,250.541 118.096167,249.813 118.044167,249.241 C119.760167,247.837 121.060167,247.525 122.100167,247.525 C123.765167,247.525 125.793167,248.357 125.793167,252.621 L125.793167,261.565 C125.793167,264.842 125.377167,265.05 123.089167,265.362 L123.089167,267.026 L135.361167,267.026 L135.361167,265.362 C132.605167,264.946 132.397167,264.79 132.397167,261.825 L132.397167,261.825 Z M84.4521669,254.129 C82.6841669,257.717 76.8081669,264.322 74.7801669,264.322 C74.0521669,264.322 73.3761669,263.229 73.3761669,260.889 C73.3761669,255.741 75.4561669,249.605 78.9921669,247.005 C79.8761669,246.329 81.3321669,245.913 82.6841669,245.913 C84.0371669,245.913 85.4401669,246.277 86.1691669,246.641 C85.8041669,248.305 85.0241669,252.049 84.4521669,254.129 L84.4521669,254.129 Z M86.8451669,263.698 C86.5331669,263.698 86.3771669,263.281 86.7411669,261.461 C87.9371669,254.857 89.4971669,247.785 90.3291669,244.561 L90.1731669,244.353 C89.6011669,244.353 88.9251669,244.197 88.1961669,244.041 C87.1051669,243.833 86.0651669,243.677 84.9721669,243.677 C81.6961669,243.677 77.9001669,245.497 75.3001669,247.681 C71.5041669,250.853 69.0601669,256.521 69.0601669,261.773 C69.0601669,265.934 70.7241669,267.65 72.0761669,267.65 C73.4801669,267.65 75.1961669,266.714 76.9121669,265.31 C79.1481669,263.489 81.5921669,260.994 83.6201669,258.133 L83.7251669,258.133 L82.6841669,263.073 C81.9561669,266.87 82.6321669,267.65 83.6201669,267.65 C84.9211669,267.65 88.4051669,265.726 91.2131669,262.241 L90.5891669,260.994 C89.0811669,262.502 87.2611669,263.698 86.8451669,263.698 L86.8451669,263.698 Z M67.2411669,230 C66.5641669,230 63.6001669,231.352 59.5441669,231.82 L59.3361669,233.068 L60.7401669,233.12 C63.1321669,233.12 63.4441669,233.484 62.9241669,235.72 C61.1561669,244.301 59.3361669,252.829 57.5161669,261.357 C56.4241669,266.454 57.2561669,267.65 58.2441669,267.65 C59.8561669,267.65 63.5481669,265.31 66.2521669,262.085 L65.4721669,260.941 C64.0161669,262.45 61.8841669,263.802 61.3121669,263.802 C61.0001669,263.802 60.7921669,263.489 61.1041669,261.981 C63.2881669,251.685 65.4201669,241.597 67.5531669,231.56 C67.7611669,230.468 67.7091669,230 67.2411669,230 L67.2411669,230 Z" id="лого"></path>
        </g>
    </g>
</svg>